<svg width="82" height="60" viewBox="0 0 82 60" fill="none" xmlns="http://www.w3.org/2000/svg">
<path d="M7.59705 41.3833C14.1336 49.0833 27.1708 52.7277 45.2856 48.9526C69.4124 43.9246 84.9605 26.0078 78.5529 11.2887C73.6081 -0.069938 54.4516 0.260384 37.5915 5.51124M7.59705 41.3833C5.42768 38.8278 3.97435 35.8256 3.28908 32.4997C1.01373 21.4564 12.1448 6.27883 37.5915 5.51124M7.59705 41.3833C4.37406 30.937 10.0034 18.642 23.6573 11.2887C27.816 9.04899 32.6032 7.06476 37.5915 5.51124M7.59705 41.3833C8.67364 44.8727 10.738 48.1559 13.8209 50.9797C22.9635 59.354 44.5856 61.106 63.6987 51.4382M37.5915 5.51124C42.9004 5.35109 48.8325 5.81817 55.396 7.08088" stroke="#00C764" stroke-width="4"/>
</svg>
