<svg width="390" height="15" viewBox="0 0 390 15" fill="none" xmlns="http://www.w3.org/2000/svg">
<path d="M389.984 2.2885C387.998 2.20767 386.178 2.21356 384.193 2.21999C382.207 2.22641 380.387 2.14506 378.401 2.06423C374.098 1.90366 369.961 1.6553 365.658 1.49473C357.549 1.17197 349.275 0.849755 341.167 0.788744C333.721 0.638344 326.109 0.575727 318.663 0.599822C316.678 0.606247 314.692 0.612673 312.872 0.618563C305.426 0.729906 297.98 0.754001 290.535 0.865345C273.162 1.18331 255.624 1.50181 238.251 1.99427C221.21 2.48567 204.169 2.97706 187.293 3.55516C179.021 3.84368 170.583 4.13273 162.311 4.42124C153.212 4.88693 144.112 5.17813 135.178 5.55603C116.483 6.40177 97.9534 7.15972 79.2586 8.00546C63.0454 8.75592 46.9985 9.76758 30.9525 11.041C20.6965 11.9467 10.2754 12.9401 0.0197905 13.9331C11.7691 14.3313 23.6831 14.4672 35.5967 14.5159C43.3735 14.4907 51.1501 14.3783 58.7611 14.2665C63.7247 14.1631 68.6881 13.9726 73.8169 13.7815C76.9604 13.6841 79.9382 13.4999 82.916 13.3158C91.0223 12.8533 99.2943 12.4776 107.401 12.0151C116.831 11.5483 126.095 10.9948 135.525 10.5281C145.12 10.0608 154.881 9.59296 164.477 9.12567C173.08 8.74883 181.848 8.37146 190.617 7.99409C199.054 7.61779 207.658 7.3282 216.095 7.03915C224.699 6.74957 233.136 6.46051 241.74 6.17093C250.508 5.8808 259.112 5.76571 267.881 5.56284C283.765 5.16244 299.649 5.02379 315.699 4.88461C324.634 4.85569 333.403 4.65282 342.337 4.44941C351.106 4.24653 359.875 4.04366 368.478 3.75407C371.953 3.65558 375.593 3.55655 379.067 3.37081C380.721 3.27821 382.541 3.18507 384.195 3.00522C385.684 2.8259 387.172 2.55934 388.661 2.46727C389.157 2.37842 389.488 2.2901 389.984 2.2885Z" fill="#00C664"/>
</svg>
