<svg width="54" height="52" viewBox="0 0 282 256" fill="none" xmlns="http://www.w3.org/2000/svg">
    <rect x="0.5" y="0.5" width="281" height="255" fill="#201A1A" stroke="#4D13CA"/>
    <rect x="34.5" y="26.5" width="214" height="203" fill="black" stroke="#4D13CA"/>
    <path d="M77.5455 163H53.8864V93.1818H78.0227C84.9545 93.1818 90.9091 94.5795 95.8864 97.375C100.886 100.148 104.727 104.136 107.409 109.341C110.091 114.545 111.432 120.773 111.432 128.023C111.432 135.295 110.08 141.545 107.375 146.773C104.693 152 100.818 156.011 95.75 158.807C90.7045 161.602 84.6364 163 77.5455 163ZM66.5341 152.057H76.9318C81.7955 152.057 85.8523 151.17 89.1023 149.398C92.3523 147.602 94.7955 144.932 96.4318 141.386C98.0682 137.818 98.8864 133.364 98.8864 128.023C98.8864 122.682 98.0682 118.25 96.4318 114.727C94.7955 111.182 92.375 108.534 89.1705 106.784C85.9886 105.011 82.0341 104.125 77.3068 104.125H66.5341V152.057Z" fill="white"/>
    <path d="M76.5227 222.023C71.2727 222.023 66.7386 220.932 62.9205 218.75C59.125 216.545 56.2045 213.432 54.1591 209.409C52.1136 205.364 51.0909 200.602 51.0909 195.125C51.0909 189.739 52.1136 185.011 54.1591 180.943C56.2273 176.852 59.1136 173.67 62.8182 171.398C66.5227 169.102 70.875 167.955 75.875 167.955C79.1023 167.955 82.1477 168.477 85.0114 169.523C87.8977 170.545 90.4432 172.136 92.6477 174.295C94.875 176.455 96.625 179.205 97.8977 182.545C99.1705 185.864 99.8068 189.818 99.8068 194.409V198.193H56.8864V189.875H87.9773C87.9545 187.511 87.4432 185.409 86.4432 183.568C85.4432 181.705 84.0455 180.239 82.25 179.17C80.4773 178.102 78.4091 177.568 76.0455 177.568C73.5227 177.568 71.3068 178.182 69.3977 179.409C67.4886 180.614 66 182.205 64.9318 184.182C63.8864 186.136 63.3523 188.284 63.3295 190.625V197.886C63.3295 200.932 63.8864 203.545 65 205.727C66.1136 207.886 67.6705 209.545 69.6705 210.705C71.6705 211.841 74.0114 212.409 76.6932 212.409C78.4886 212.409 80.1136 212.159 81.5682 211.659C83.0227 211.136 84.2841 210.375 85.3523 209.375C86.4205 208.375 87.2273 207.136 87.7727 205.659L99.2955 206.955C98.5682 210 97.1818 212.659 95.1364 214.932C93.1136 217.182 90.5227 218.932 87.3636 220.182C84.2045 221.409 80.5909 222.023 76.5227 222.023ZM155.52 168.636L136.872 221H123.236L104.588 168.636H117.747L129.781 207.534H130.327L142.395 168.636H155.52ZM164.06 221V168.636H176.401V221H164.06ZM170.264 161.205C168.31 161.205 166.628 160.557 165.219 159.261C163.81 157.943 163.105 156.364 163.105 154.523C163.105 152.659 163.81 151.08 165.219 149.784C166.628 148.466 168.31 147.807 170.264 147.807C172.241 147.807 173.923 148.466 175.31 149.784C176.719 151.08 177.423 152.659 177.423 154.523C177.423 156.364 176.719 157.943 175.31 159.261C173.923 160.557 172.241 161.205 170.264 161.205ZM201.432 190.318V221H189.091V168.636H200.886V177.534H201.5C202.705 174.602 204.625 172.273 207.261 170.545C209.92 168.818 213.205 167.955 217.114 167.955C220.727 167.955 223.875 168.727 226.557 170.273C229.261 171.818 231.352 174.057 232.83 176.989C234.33 179.92 235.068 183.477 235.045 187.659V221H222.705V189.568C222.705 186.068 221.795 183.33 219.977 181.352C218.182 179.375 215.693 178.386 212.511 178.386C210.352 178.386 208.432 178.864 206.75 179.818C205.091 180.75 203.784 182.102 202.83 183.875C201.898 185.648 201.432 187.795 201.432 190.318Z" fill="white"/>
</svg>
