<svg width="140" height="140" viewBox="0 0 700 530" fill="none" xmlns="http://www.w3.org/2000/svg">
    <rect width="700" height="530" fill="white"/>
    <circle cx="350" cy="265" r="235" stroke="black" stroke-width="10"/>
    <circle cx="350" cy="265" r="166" stroke="black" stroke-width="8"/>
    <circle cx="350" cy="265" r="146" fill="black" stroke="black" stroke-width="8"/>
    <circle cx="350" cy="265" r="258" stroke="black" stroke-width="4"/>
    <path d="M668.213 409.288L683.415 454H573V362H683.415L668.213 406.712L667.775 408L668.213 409.288Z" fill="white" stroke="black" stroke-width="8"/>
    <path d="M32.7871 409.288L17.5849 454H128V362H17.5849L32.7871 406.712L33.2249 408L32.7871 409.288Z" fill="white" stroke="black" stroke-width="8"/>
    <rect x="129" y="352" width="442" height="112" fill="white" stroke="black" stroke-width="8"/>
    <path d="M163.112 214.771C162.32 214.681 161.605 214.726 160.966 214.905C160.313 215.067 159.698 215.422 159.12 215.97C158.544 216.502 157.959 217.269 157.367 218.271C156.777 219.258 156.141 220.522 155.46 222.064C154.738 223.68 153.983 225.128 153.196 226.406C152.393 227.683 151.531 228.757 150.609 229.627C149.688 230.498 148.681 231.13 147.587 231.525C146.493 231.92 145.287 232.043 143.967 231.894C142.647 231.744 141.465 231.336 140.42 230.667C139.376 229.999 138.51 229.114 137.823 228.015C137.122 226.898 136.634 225.609 136.358 224.147C136.083 222.685 136.062 221.087 136.296 219.353C136.638 216.813 137.418 214.716 138.634 213.062C139.837 211.39 141.285 210.178 142.979 209.426C144.656 208.673 146.38 208.397 148.15 208.597L147.549 213.057C146.276 212.912 145.113 213.056 144.062 213.487C142.995 213.917 142.108 214.65 141.401 215.686C140.678 216.72 140.203 218.081 139.975 219.769C139.76 221.364 139.823 222.707 140.165 223.799C140.506 224.891 141.054 225.739 141.807 226.344C142.563 226.932 143.469 227.286 144.525 227.406C145.239 227.487 145.911 227.413 146.541 227.186C147.157 226.941 147.757 226.53 148.339 225.951C148.924 225.357 149.492 224.588 150.045 223.644C150.6 222.685 151.166 221.531 151.742 220.181C152.544 218.323 153.373 216.734 154.229 215.416C155.085 214.098 155.992 213.038 156.952 212.234C157.898 211.414 158.928 210.847 160.042 210.533C161.143 210.201 162.354 210.11 163.673 210.26C165.055 210.416 166.267 210.836 167.31 211.52C168.353 212.204 169.2 213.11 169.852 214.237C170.504 215.364 170.949 216.68 171.187 218.185C171.412 219.672 171.404 221.306 171.164 223.087C170.953 224.651 170.528 226.167 169.888 227.636C169.251 229.088 168.414 230.385 167.377 231.525C166.343 232.65 165.139 233.512 163.765 234.111C162.379 234.693 160.839 234.888 159.147 234.697L159.748 230.237C160.913 230.369 161.945 230.258 162.844 229.904C163.727 229.548 164.493 229.014 165.141 228.301C165.79 227.573 166.314 226.728 166.712 225.767C167.096 224.788 167.361 223.757 167.508 222.673C167.719 221.109 167.68 219.761 167.391 218.628C167.103 217.494 166.593 216.604 165.86 215.955C165.13 215.29 164.214 214.896 163.112 214.771Z" fill="black"/>
    <path d="M163.016 198.607L162.501 198.449C160.753 197.912 159.224 197.164 157.913 196.206C156.588 195.244 155.544 194.123 154.783 192.845C154.007 191.561 153.557 190.158 153.434 188.635C153.296 187.107 153.531 185.514 154.138 183.856C154.751 182.184 155.616 180.776 156.732 179.634C157.839 178.472 159.124 177.594 160.589 177C162.043 176.386 163.616 176.061 165.307 176.026C166.984 175.986 168.696 176.235 170.443 176.772L170.958 176.931C172.706 177.468 174.235 178.215 175.546 179.173C176.856 180.131 177.897 181.259 178.668 182.557C179.429 183.836 179.879 185.239 180.017 186.767C180.145 188.276 179.903 189.866 179.29 191.539C178.678 193.211 177.82 194.621 176.719 195.768C175.602 196.91 174.317 197.788 172.862 198.402C171.398 198.997 169.828 199.314 168.152 199.354C166.475 199.393 164.763 199.145 163.016 198.607ZM163.992 194.378L164.508 194.536C165.717 194.908 166.911 195.12 168.089 195.172C169.251 195.219 170.345 195.09 171.371 194.785C172.402 194.465 173.312 193.954 174.102 193.25C174.877 192.541 175.471 191.622 175.885 190.492C176.294 189.377 176.42 188.33 176.263 187.352C176.097 186.354 175.705 185.45 175.088 184.64C174.471 183.83 173.683 183.123 172.725 182.518C171.757 181.894 170.668 181.396 169.458 181.024L168.943 180.866C167.748 180.498 166.567 180.298 165.399 180.266C164.222 180.214 163.117 180.348 162.086 180.668C161.046 180.968 160.13 181.47 159.341 182.174C158.556 182.864 157.957 183.773 157.543 184.903C157.135 186.018 157.014 187.074 157.18 188.072C157.351 189.055 157.75 189.962 158.377 190.791C158.994 191.601 159.79 192.31 160.763 192.92C161.721 193.525 162.798 194.011 163.992 194.378Z" fill="black"/>
    <path d="M191.674 165.228L189.497 168.978L164.296 156.705C162.652 155.904 161.433 154.947 160.639 153.832C159.838 152.696 159.464 151.448 159.515 150.087C159.553 148.718 160.003 147.291 160.866 145.804C161.117 145.372 161.396 144.953 161.703 144.548C162.018 144.129 162.353 143.738 162.709 143.374L165.773 145.126C165.538 145.376 165.301 145.676 165.061 146.027C164.829 146.365 164.611 146.709 164.407 147.061C163.944 147.858 163.713 148.629 163.712 149.375C163.706 150.099 163.933 150.764 164.392 151.37C164.852 151.975 165.545 152.503 166.472 152.955L191.674 165.228ZM171.581 149.462L174.573 150.919L167.678 162.798L164.686 161.341L171.581 149.462Z" fill="black"/>
    <path d="M185.883 130.018L188.672 131.833L180.271 142.668L177.481 140.853L185.883 130.018ZM175.158 133.824L177.815 130.398L198.974 144.163C199.694 144.631 200.319 144.88 200.848 144.909C201.378 144.937 201.831 144.823 202.207 144.567C202.584 144.31 202.92 143.99 203.217 143.607C203.437 143.323 203.641 143.01 203.828 142.667C204.011 142.303 204.145 142.029 204.231 141.843L207.212 143.754C207.093 144.085 206.9 144.499 206.634 144.994C206.391 145.486 206.03 146.041 205.551 146.658C204.9 147.498 204.125 148.154 203.225 148.628C202.326 149.102 201.301 149.28 200.15 149.163C198.996 149.026 197.712 148.497 196.297 147.576L175.158 133.824Z" fill="black"/>
    <path d="M215.783 128.594L205.595 109.886L207.744 107.999L210.321 111.236L220.675 130.264L218.579 132.105L215.783 128.594ZM197.407 117.078L216.833 127.983L220.217 130.666L218.016 132.6L194.149 119.939L197.407 117.078ZM227.562 118.342L216.408 100.39L219.648 97.544L232.456 119.917L230.272 121.835L227.562 118.342ZM208.219 107.582L227.838 117.541L231.892 120.412L229.814 122.237L209.318 112.054L205.93 109.592L208.219 107.582Z" fill="black"/>
    <path d="M259.189 98.4754L252.011 87.571C251.461 86.7357 250.806 86.1096 250.047 85.6925C249.293 85.2549 248.455 85.0591 247.534 85.105C246.613 85.1509 245.64 85.4571 244.614 86.0236C243.657 86.5523 242.919 87.1735 242.4 87.8871C241.895 88.5931 241.605 89.3139 241.529 90.0495C241.468 90.7776 241.63 91.4353 242.017 92.0226L238.221 94.1187C237.723 93.3617 237.434 92.498 237.355 91.5275C237.275 90.5569 237.421 89.56 237.792 88.5366C238.168 87.4926 238.78 86.4961 239.629 85.547C240.482 84.5772 241.579 83.7222 242.92 82.982C244.534 82.0907 246.128 81.5661 247.703 81.4083C249.291 81.243 250.782 81.4963 252.175 82.1682C253.574 82.8195 254.793 83.9348 255.832 85.514L262.327 95.3808C262.791 96.0856 263.346 96.802 263.994 97.5302C264.654 98.2508 265.304 98.8264 265.942 99.2572L266.148 99.5704L262.188 101.757C261.722 101.445 261.206 100.974 260.641 100.342C260.068 99.6981 259.584 99.0757 259.189 98.4754ZM253.776 88.892L255.492 91.4144L251.655 93.5332C250.575 94.1299 249.666 94.7473 248.93 95.3853C248.185 96.0102 247.633 96.6445 247.273 97.288C246.913 97.9315 246.746 98.5844 246.772 99.2465C246.789 99.8956 247.012 100.546 247.442 101.199C247.88 101.865 248.436 102.385 249.112 102.759C249.787 103.133 250.547 103.31 251.391 103.289C252.24 103.247 253.129 102.969 254.06 102.456C255.222 101.814 256.093 101.012 256.673 100.051C257.253 99.0905 257.579 98.1273 257.652 97.1616C257.739 96.1883 257.593 95.3706 257.213 94.7084L259.98 95.5557C260.245 96.1567 260.385 96.9071 260.399 97.8069C260.413 98.7066 260.267 99.6596 259.959 100.666C259.657 101.651 259.153 102.615 258.448 103.556C257.749 104.476 256.797 105.268 255.593 105.933C254.089 106.764 252.584 107.212 251.079 107.278C249.588 107.336 248.219 107.069 246.971 106.477C245.729 105.864 244.721 104.97 243.948 103.796C243.2 102.66 242.775 101.534 242.674 100.415C242.563 99.2841 242.756 98.1896 243.254 97.1319C243.743 96.0612 244.504 95.0358 245.537 94.0558C246.57 93.0758 247.846 92.1665 249.365 91.3281L253.776 88.892Z" fill="black"/>
    <path d="M274.196 73.6253L282.754 93.2122L278.683 94.7046L268.529 71.4666L272.49 70.0146L274.196 73.6253ZM279.982 67.1187L281.574 70.8208C281.205 70.8729 280.864 70.9483 280.549 71.0469C280.243 71.1258 279.9 71.2352 279.518 71.375C278.579 71.7192 277.813 72.1663 277.219 72.7161C276.626 73.266 276.192 73.8901 275.918 74.5884C275.645 75.2867 275.518 76.0476 275.537 76.871C275.565 77.6748 275.719 78.5152 276.001 79.3922L275.138 80.456C274.525 79.0528 274.089 77.6845 273.829 76.351C273.585 75.0121 273.557 73.7599 273.745 72.5944C273.928 71.4146 274.365 70.3904 275.058 69.5218C275.759 68.6336 276.755 67.9528 278.046 67.4796C278.339 67.372 278.693 67.2841 279.105 67.2159C279.512 67.1333 279.804 67.1009 279.982 67.1187Z" fill="black"/>
    <path d="M310.993 85.9052C309.264 86.2624 307.625 86.2982 306.075 86.0125C304.537 85.7084 303.132 85.1297 301.86 84.2763C300.604 83.4197 299.529 82.3185 298.635 80.9727C297.741 79.6268 297.081 78.0891 296.655 76.3595L296.419 75.4037C295.926 73.401 295.786 71.5566 295.998 69.8707C296.206 68.1695 296.688 66.6668 297.445 65.3627C298.201 64.0585 299.16 62.9914 300.323 62.1614C301.485 61.3313 302.763 60.7725 304.155 60.4848C305.93 60.1181 307.535 60.1054 308.97 60.4468C310.42 60.785 311.692 61.4149 312.788 62.3366C313.879 63.2431 314.805 64.3911 315.565 65.7805C316.322 67.1549 316.913 68.7068 317.339 70.4364L317.804 72.3253L299.258 76.1565L298.412 72.7201L312.712 69.7661L312.633 69.4475C312.303 68.3677 311.812 67.3531 311.16 66.4036C310.523 65.451 309.702 64.7278 308.696 64.2341C307.69 63.7404 306.46 63.6437 305.007 63.944C304.043 64.1431 303.206 64.5313 302.496 65.1085C301.782 65.6705 301.231 66.406 300.844 67.3151C300.457 68.2241 300.242 69.2808 300.201 70.4851C300.16 71.6893 300.323 73.0349 300.689 74.5217L300.924 75.4775C301.212 76.6458 301.643 77.7125 302.219 78.6779C302.806 79.6248 303.508 80.4204 304.326 81.0645C305.159 81.7055 306.081 82.1528 307.092 82.4063C308.119 82.6566 309.214 82.6616 310.376 82.4214C311.876 82.1116 313.071 81.5458 313.962 80.724C314.854 79.9021 315.564 78.9024 316.094 77.7246L319.164 79.219C318.826 80.1338 318.334 81.0406 317.687 81.9396C317.04 82.8385 316.168 83.6404 315.071 84.3453C313.99 85.047 312.63 85.567 310.993 85.9052Z" fill="black"/>
    <path d="M360.724 81.8294L353.62 81.282L354.003 77.6213L361.06 78.1651C363.49 78.3524 365.562 78.0028 367.275 77.1163C368.99 76.2142 370.336 74.8764 371.315 73.1028C372.311 71.3148 372.922 69.1839 373.15 66.7099L373.34 64.6327C373.519 62.6878 373.444 60.9427 373.115 59.3974C372.788 57.8365 372.22 56.5 371.413 55.3879C370.606 54.2602 369.574 53.3737 368.315 52.7283C367.072 52.084 365.609 51.6971 363.927 51.5675L356.262 50.9768L356.601 47.2892L364.265 47.8799C366.493 48.0515 368.492 48.5816 370.262 49.4701C372.033 50.3431 373.516 51.5308 374.712 53.0332C375.924 54.5212 376.798 56.2809 377.333 58.3121C377.87 60.3279 378.025 62.5649 377.799 65.0233L377.613 67.0538C377.387 69.5122 376.825 71.7019 375.927 73.6227C375.03 75.528 373.841 77.1208 372.358 78.4011C370.891 79.6827 369.173 80.6237 367.204 81.2241C365.252 81.8101 363.092 82.0119 360.724 81.8294ZM359.148 47.4855L356.027 81.4674L351.517 81.1199L354.638 47.1379L359.148 47.4855Z" fill="black"/>
    <path d="M400.037 88.3302C398.333 87.8682 396.879 87.1666 395.674 86.2255C394.489 85.2735 393.567 84.1423 392.908 82.8317C392.264 81.5252 391.909 80.0867 391.842 78.5163C391.776 76.9458 392.016 75.3132 392.564 73.6182L392.867 72.6815C393.501 70.7189 394.359 69.0517 395.442 67.6797C396.53 66.2929 397.752 65.2012 399.109 64.4046C400.465 63.6081 401.873 63.1085 403.333 62.9059C404.792 62.7033 406.208 62.7881 407.58 63.1601C409.33 63.6344 410.742 64.3406 411.816 65.2787C412.906 66.221 413.685 67.3378 414.154 68.629C414.627 69.9054 414.826 71.3179 414.752 72.8664C414.683 74.4 414.375 76.0143 413.827 77.7093L413.229 79.5603L394.951 74.605L396.04 71.2374L410.132 75.0582L410.233 74.7459C410.519 73.6591 410.629 72.557 410.564 71.4397C410.513 70.3264 410.179 69.3303 409.561 68.4512C408.943 67.5722 407.918 66.9384 406.485 66.55C405.535 66.2924 404.595 66.256 403.666 66.4408C402.742 66.6106 401.869 67.0045 401.046 67.6222C400.223 68.24 399.473 69.0635 398.796 70.0928C398.119 71.122 397.545 72.3652 397.074 73.8222L396.771 74.7589C396.402 75.9037 396.212 77.0246 396.202 78.1215C396.211 79.2076 396.403 80.2136 396.776 81.1395C397.165 82.0695 397.734 82.8707 398.484 83.5431C399.25 84.2195 400.206 84.7131 401.352 85.0239C402.83 85.4246 404.178 85.4665 405.395 85.1498C406.613 84.8331 407.767 84.281 408.858 83.4933L410.75 86.1651C409.968 86.81 409.054 87.3789 408.009 87.8718C406.964 88.3646 405.774 88.6726 404.439 88.7957C403.118 88.9228 401.651 88.7676 400.037 88.3302Z" fill="black"/>
    <path d="M430.472 94.0519L447.122 78.184L451.142 80.0436L430.624 98.4241L427.986 97.204L430.472 94.0519ZM435.571 72.8413L431.649 94.7252L430.262 98.2568L427.625 97.0367L431.53 70.9718L435.571 72.8413Z" fill="black"/>
    <path d="M457.534 113.634C456.083 112.628 454.956 111.487 454.152 110.211C453.371 108.931 452.905 107.576 452.753 106.146C452.615 104.724 452.798 103.279 453.304 101.811C453.809 100.343 454.629 98.922 455.763 97.5484L456.39 96.7893C457.703 95.1989 459.122 93.9566 460.648 93.0625C462.183 92.1564 463.74 91.5677 465.316 91.2962C466.893 91.0248 468.412 91.0443 469.871 91.3548C471.331 91.6652 472.646 92.2253 473.814 93.0349C475.304 94.067 476.39 95.1977 477.071 96.427C477.765 97.6652 478.1 98.9583 478.078 100.306C478.065 101.642 477.743 103.01 477.112 104.41C476.491 105.798 475.614 107.179 474.48 108.553L473.241 110.053L457.674 99.2695L459.927 96.5404L471.93 104.855L472.139 104.602C472.804 103.699 473.307 102.722 473.65 101.671C474.005 100.629 474.049 99.5987 473.78 98.5792C473.511 97.5597 472.767 96.6273 471.546 95.7821C470.737 95.2216 469.858 94.8682 468.909 94.722C467.969 94.5637 466.997 94.6288 465.991 94.9172C464.986 95.2057 463.975 95.7084 462.96 96.4252C461.944 97.142 460.948 98.0908 459.973 99.2716L459.347 100.031C458.581 100.959 457.994 101.925 457.588 102.932C457.204 103.935 457.021 104.926 457.041 105.905C457.073 106.893 457.323 107.825 457.793 108.699C458.275 109.582 459.004 110.362 459.98 111.038C461.239 111.91 462.504 112.407 463.776 112.531C465.047 112.654 466.343 112.538 467.665 112.185L468.495 115.288C467.518 115.615 466.444 115.828 465.273 115.926C464.102 116.024 462.86 115.902 461.546 115.56C460.246 115.228 458.909 114.586 457.534 113.634Z" fill="black"/>
    <path d="M505.462 105.374L478.771 129.532L475.574 126.568L502.265 102.41L505.462 105.374Z" fill="black"/>
    <path d="M497.985 130.238L498.433 129.939C499.954 128.924 501.529 128.191 503.16 127.74C504.803 127.28 506.417 127.12 508.001 127.261C509.598 127.394 511.106 127.838 512.524 128.596C513.955 129.344 515.22 130.41 516.319 131.791C517.427 133.186 518.151 134.621 518.49 136.098C518.852 137.579 518.857 139.036 518.505 140.469C518.175 141.906 517.519 143.27 516.537 144.561C515.568 145.844 514.323 146.993 512.802 148.008L512.354 148.307C510.833 149.322 509.258 150.055 507.627 150.506C505.997 150.957 504.378 151.111 502.771 150.966C501.187 150.826 499.679 150.381 498.248 149.632C496.84 148.887 495.582 147.817 494.473 146.423C493.364 145.029 492.634 143.598 492.282 142.129C491.943 140.652 491.938 139.195 492.268 137.759C492.62 136.326 493.281 134.968 494.25 133.685C495.219 132.402 496.464 131.253 497.985 130.238ZM501.132 133.333L500.683 133.632C499.631 134.334 498.729 135.114 497.978 135.971C497.24 136.819 496.698 137.714 496.353 138.655C496.017 139.609 495.923 140.58 496.071 141.566C496.233 142.544 496.688 143.504 497.436 144.446C498.176 145.375 499.024 146.054 499.981 146.483C500.961 146.914 501.993 147.124 503.078 147.112C504.162 147.1 505.258 146.902 506.366 146.518C507.496 146.139 508.588 145.597 509.64 144.895L510.089 144.596C511.129 143.902 512.013 143.125 512.741 142.265C513.492 141.408 514.035 140.503 514.371 139.549C514.729 138.598 514.834 137.63 514.686 136.643C514.548 135.668 514.104 134.71 513.355 133.769C512.616 132.839 511.757 132.159 510.777 131.727C509.806 131.307 508.768 131.102 507.66 131.111C506.576 131.123 505.473 131.325 504.353 131.717C503.245 132.1 502.172 132.639 501.132 133.333Z" fill="black"/>
    <path d="M529.735 160.635L501.912 172.468L499.941 168.58L532.25 154.839L534.052 158.392L529.735 160.635ZM530.472 178.847L530.019 179.039C528.323 179.761 526.649 180.235 524.999 180.463C523.364 180.684 521.823 180.645 520.378 180.345C518.939 180.059 517.65 179.497 516.509 178.661C515.368 177.825 514.441 176.703 513.728 175.295C513 173.86 512.602 172.487 512.532 171.179C512.463 169.87 512.702 168.633 513.248 167.469C513.794 166.305 514.604 165.215 515.68 164.199C516.762 163.196 518.08 162.263 519.635 161.398L522.05 160.371C523.861 159.804 525.565 159.46 527.164 159.339C528.763 159.218 530.235 159.329 531.58 159.672C532.947 160.023 534.157 160.635 535.211 161.508C536.28 162.375 537.175 163.519 537.895 164.94C538.616 166.362 538.968 167.745 538.951 169.091C538.948 170.431 538.613 171.7 537.944 172.899C537.276 174.098 536.304 175.197 535.028 176.197C533.774 177.205 532.255 178.088 530.472 178.847ZM528.048 175.151L528.501 174.958C529.666 174.463 530.699 173.88 531.599 173.209C532.515 172.531 533.233 171.777 533.755 170.945C534.299 170.121 534.599 169.231 534.656 168.275C534.728 167.312 534.495 166.302 533.958 165.242C533.464 164.267 532.86 163.49 532.148 162.912C531.442 162.348 530.668 161.941 529.824 161.69C528.995 161.433 528.125 161.303 527.215 161.3C526.326 161.306 525.447 161.4 524.579 161.583L518.993 163.959C518.127 164.665 517.376 165.459 516.739 166.34C516.116 167.215 515.744 168.186 515.621 169.255C515.513 170.317 515.78 171.483 516.423 172.751C516.953 173.796 517.632 174.6 518.459 175.163C519.308 175.734 520.251 176.095 521.289 176.247C522.334 176.412 523.427 176.396 524.568 176.199C525.724 175.996 526.884 175.646 528.048 175.151Z" fill="black"/>
    <path d="M525.142 204.167C524.675 202.464 524.541 200.853 524.74 199.334C524.958 197.826 525.464 196.452 526.258 195.213C527.055 193.988 528.113 192.944 529.43 192.081C530.748 191.217 532.274 190.586 534.01 190.187L534.97 189.966C536.98 189.504 538.85 189.387 540.579 189.614C542.324 189.838 543.883 190.329 545.256 191.086C546.629 191.844 547.772 192.799 548.687 193.95C549.601 195.101 550.246 196.363 550.622 197.734C551.101 199.482 551.209 201.059 550.947 202.465C550.688 203.886 550.123 205.129 549.249 206.195C548.391 207.257 547.277 208.154 545.907 208.886C544.553 209.613 543.007 210.177 541.271 210.576L539.375 211.012L534.372 192.747L537.821 191.954L541.679 206.037L541.999 205.963C543.079 205.651 544.083 205.18 545.011 204.55C545.943 203.935 546.631 203.137 547.074 202.154C547.517 201.171 547.542 199.964 547.15 198.532C546.89 197.583 546.445 196.756 545.815 196.052C545.2 195.344 544.418 194.795 543.47 194.404C542.521 194.014 541.432 193.791 540.203 193.737C538.974 193.683 537.614 193.828 536.122 194.171L535.162 194.391C533.99 194.661 532.929 195.073 531.98 195.627C531.051 196.193 530.282 196.875 529.675 197.671C529.072 198.482 528.671 199.383 528.473 200.374C528.279 201.38 528.339 202.455 528.653 203.601C529.057 205.077 529.705 206.258 530.594 207.143C531.484 208.028 532.545 208.737 533.775 209.271L532.436 212.27C531.485 211.928 530.532 211.434 529.578 210.789C528.624 210.143 527.756 209.277 526.973 208.192C526.194 207.121 525.583 205.78 525.142 204.167Z" fill="black"/>
    <path d="M551.559 226.66L530.251 228.362L529.841 224.045L555.119 222.026L555.519 226.226L551.559 226.66ZM556.421 234.218L552.401 234.515C552.444 234.151 552.459 233.805 552.443 233.478C552.445 233.164 552.426 232.805 552.388 232.401C552.293 231.405 552.053 230.539 551.669 229.801C551.285 229.064 550.788 228.453 550.177 227.969C549.566 227.485 548.856 227.119 548.047 226.87C547.256 226.635 546.397 226.508 545.469 226.488L544.652 225.331C546.179 225.209 547.626 225.242 548.993 225.431C550.362 225.635 551.591 226.015 552.68 226.57C553.784 227.125 554.671 227.869 555.341 228.803C556.027 229.751 556.436 230.91 556.566 232.278C556.596 232.59 556.591 232.95 556.552 233.361C556.528 233.77 556.484 234.056 556.421 234.218Z" fill="black"/>
    <g clip-path="url(#clip0_101_82)">
        <path d="M320.625 358C320.625 353.833 318.984 350.292 315.703 347.375C312.422 344.458 308.437 343 303.75 343C299.063 343 295.078 344.458 291.797 347.375C288.516 350.292 286.875 353.833 286.875 358C286.875 362.167 288.516 365.708 291.797 368.625C295.078 371.542 299.063 373 303.75 373C308.437 373 312.422 371.542 315.703 368.625C318.984 365.708 320.625 362.167 320.625 358ZM320.625 178C320.625 173.833 318.984 170.292 315.703 167.375C312.422 164.458 308.437 163 303.75 163C299.063 163 295.078 164.458 291.797 167.375C288.516 170.292 286.875 173.833 286.875 178C286.875 182.167 288.516 185.708 291.797 188.625C295.078 191.542 299.063 193 303.75 193C308.437 193 312.422 191.542 315.703 188.625C318.984 185.708 320.625 182.167 320.625 178ZM433.125 198C433.125 193.833 431.484 190.292 428.203 187.375C424.922 184.458 420.937 183 416.25 183C411.563 183 407.578 184.458 404.297 187.375C401.016 190.292 399.375 193.833 399.375 198C399.375 202.167 401.016 205.708 404.297 208.625C407.578 211.542 411.563 213 416.25 213C420.937 213 424.922 211.542 428.203 208.625C431.484 205.708 433.125 202.167 433.125 198ZM450 198C450 203.417 448.477 208.443 445.43 213.078C442.383 217.714 438.281 221.333 433.125 223.938C432.891 253.833 419.648 275.396 393.398 288.625C385.547 292.583 373.652 296.802 357.715 301.281C342.715 305.448 332.783 309.146 327.92 312.375C323.057 315.604 320.625 320.812 320.625 328V332.062C325.781 334.667 329.883 338.286 332.93 342.922C335.977 347.557 337.5 352.583 337.5 358C337.5 366.333 334.219 373.417 327.656 379.25C321.094 385.083 313.125 388 303.75 388C294.375 388 286.406 385.083 279.844 379.25C273.281 373.417 270 366.333 270 358C270 352.583 271.523 347.557 274.57 342.922C277.617 338.286 281.719 334.667 286.875 332.062V203.938C281.719 201.333 277.617 197.714 274.57 193.078C271.523 188.443 270 183.417 270 178C270 169.667 273.281 162.583 279.844 156.75C286.406 150.917 294.375 148 303.75 148C313.125 148 321.094 150.917 327.656 156.75C334.219 162.583 337.5 169.667 337.5 178C337.5 183.417 335.977 188.443 332.93 193.078C329.883 197.714 325.781 201.333 320.625 203.938V281.594C326.953 278.885 335.977 275.917 347.695 272.688C354.141 270.917 359.268 269.38 363.076 268.078C366.885 266.776 371.016 265.161 375.469 263.234C379.922 261.307 383.379 259.25 385.84 257.062C388.301 254.875 390.674 252.219 392.959 249.094C395.244 245.969 396.885 242.349 397.881 238.234C398.877 234.12 399.375 229.354 399.375 223.938C394.219 221.333 390.117 217.714 387.07 213.078C384.023 208.443 382.5 203.417 382.5 198C382.5 189.667 385.781 182.583 392.344 176.75C398.906 170.917 406.875 168 416.25 168C425.625 168 433.594 170.917 440.156 176.75C446.719 182.583 450 189.667 450 198Z" fill="white"/>
    </g>
    <path d="M239.391 447H225.141L225.234 439.641H239.391C244.266 439.641 248.328 438.625 251.578 436.594C254.828 434.531 257.266 431.656 258.891 427.969C260.547 424.25 261.375 419.906 261.375 414.938V410.766C261.375 406.859 260.906 403.391 259.969 400.359C259.031 397.297 257.656 394.719 255.844 392.625C254.031 390.5 251.812 388.891 249.188 387.797C246.594 386.703 243.609 386.156 240.234 386.156H224.859V378.75H240.234C244.703 378.75 248.781 379.5 252.469 381C256.156 382.469 259.328 384.609 261.984 387.422C264.672 390.203 266.734 393.578 268.172 397.547C269.609 401.484 270.328 405.922 270.328 410.859V414.938C270.328 419.875 269.609 424.328 268.172 428.297C266.734 432.234 264.656 435.594 261.938 438.375C259.25 441.156 256 443.297 252.188 444.797C248.406 446.266 244.141 447 239.391 447ZM229.969 378.75V447H220.922V378.75H229.969ZM327.281 439.641V447H291.141V439.641H327.281ZM292.969 378.75V447H283.922V378.75H292.969ZM322.5 408.094V415.453H291.141V408.094H322.5ZM326.812 378.75V386.156H291.141V378.75H326.812ZM360.516 436.641L380.625 378.75H390.422L365.156 447H358.172L360.516 436.641ZM341.719 378.75L361.641 436.641L364.125 447H357.141L331.922 378.75H341.719ZM409.312 378.75V447H400.266V378.75H409.312ZM478.266 378.75V447H469.172L434.812 394.359V447H425.766V378.75H434.812L469.312 431.531V378.75H478.266Z" fill="black"/>
    <defs>
        <clipPath id="clip0_101_82">
            <rect width="180" height="240" fill="white" transform="translate(270 148)"/>
        </clipPath>
    </defs>
</svg>
