<svg width="83" height="83" viewBox="0 0 83 83" fill="none" xmlns="http://www.w3.org/2000/svg">
<rect width="83" height="83" rx="15" fill="#00C764"/>
<path d="M15.3468 35.7614H8.26416C7.15959 35.7614 6.26416 34.8659 6.26416 33.7614V12.1792C6.26416 11.0746 7.15959 10.1792 8.26416 10.1792H15.4219C17.999 10.1792 20.2175 10.6913 22.0774 11.7156C23.9373 12.7316 25.3677 14.1931 26.3685 16.1001C27.3777 18.0071 27.8823 20.2888 27.8823 22.9453C27.8823 25.6101 27.3777 27.9002 26.3685 29.8155C25.3677 31.7308 23.929 33.2006 22.0524 34.2249C20.1842 35.2492 17.949 35.7614 15.3468 35.7614ZM11.6812 29.1271C11.6812 30.2317 12.5766 31.1271 13.6812 31.1271H15.1216C16.7229 31.1271 18.0699 30.844 19.1625 30.2777C20.2634 29.7031 21.0891 28.8162 21.6396 27.617C22.1984 26.4095 22.4778 24.8523 22.4778 22.9453C22.4778 21.0549 22.1984 19.5102 21.6396 18.311C21.0891 17.1119 20.2676 16.2291 19.175 15.6629C18.0824 15.0966 16.7355 14.8135 15.1341 14.8135H13.6812C12.5766 14.8135 11.6812 15.7089 11.6812 16.8135V29.1271Z" fill="#171717"/>
<path d="M33.8951 35.7614C32.7905 35.7614 31.8951 34.8659 31.8951 33.7614V12.1792C31.8951 11.0746 32.7905 10.1792 33.8951 10.1792H47.1596C48.2641 10.1792 49.1596 11.0746 49.1596 12.1792V12.6386C49.1596 13.7432 48.2641 14.6386 47.1596 14.6386H39.3121C38.2075 14.6386 37.3121 15.534 37.3121 16.6386V18.7343C37.3121 19.8389 38.2075 20.7343 39.3121 20.7343H46.2713C47.3759 20.7343 48.2713 21.6298 48.2713 22.7343V23.1937C48.2713 24.2983 47.3759 25.1937 46.2713 25.1937H39.3121C38.2075 25.1937 37.3121 26.0892 37.3121 27.1937V29.302C37.3121 30.4065 38.2075 31.302 39.3121 31.302H47.2096C48.3142 31.302 49.2096 32.1974 49.2096 33.302V33.7614C49.2096 34.8659 48.3142 35.7614 47.2096 35.7614H33.8951Z" fill="#171717"/>
<path d="M56.6334 10.1792C57.504 10.1792 58.2747 10.7425 58.539 11.572L64.2518 29.5024C64.2733 29.5698 64.336 29.6156 64.4068 29.6156C64.4776 29.6156 64.5402 29.5699 64.5617 29.5025L70.2865 11.5709C70.5512 10.7419 71.3215 10.1792 72.1917 10.1792H73.9295C75.3036 10.1792 76.2684 11.533 75.82 12.8319L68.3686 34.4141C68.0902 35.2204 67.3311 35.7614 66.4781 35.7614H62.3472C61.4946 35.7614 60.7357 35.2208 60.457 34.4149L52.9951 12.8327C52.546 11.5337 53.5108 10.1792 54.8853 10.1792H56.6334Z" fill="#171717"/>
<path d="M45.5322 46.4555C46.6367 46.4555 47.5322 47.351 47.5322 48.4555V70.0377C47.5322 71.1423 46.6367 72.0377 45.5322 72.0377H44.1151C43.0106 72.0377 42.1151 71.1423 42.1151 70.0377V48.4555C42.1151 47.351 43.0106 46.4555 44.1151 46.4555H45.5322Z" fill="#171717"/>
<path d="M71.4195 46.4555C72.5241 46.4555 73.4195 47.351 73.4195 48.4555V70.0377C73.4195 71.1423 72.5241 72.0377 71.4195 72.0377H69.7885C69.1322 72.0377 68.5177 71.7157 68.1441 71.1761L57.6305 55.9895C57.6075 55.9562 57.5696 55.9364 57.5292 55.9364C57.4612 55.9364 57.4061 55.9916 57.4061 56.0596V70.0377C57.4061 71.1423 56.5107 72.0377 55.4061 72.0377H53.989C52.8845 72.0377 51.989 71.1423 51.989 70.0377V48.4555C51.989 47.351 52.8845 46.4555 53.989 46.4555H55.6909C56.3495 46.4555 56.9659 46.7798 57.339 47.3226L67.7583 62.4803C67.7859 62.5204 67.8314 62.5443 67.88 62.5443C67.9615 62.5443 68.0275 62.4782 68.0275 62.3967V48.4555C68.0275 47.351 68.923 46.4555 70.0275 46.4555H71.4195Z" fill="#171717"/>
<path d="M10.9623 49.3301L18.8684 57.2362C19.2589 57.6267 19.2589 58.2599 18.8684 58.6504L10.9623 66.5565" stroke="black" stroke-width="7" stroke-linecap="round"/>
<path d="M32.1037 68.9058H22.7075" stroke="black" stroke-width="7" stroke-linecap="round"/>
</svg>
